<mxfile host="app.diagrams.net" modified="2023-02-27T20:05:46.513Z" agent="5.0 (Windows NT 10.0; Win64; x64) AppleWebKit/537.36 (KHTML, like Gecko) Chrome/110.0.0.0 Safari/537.36" etag="fxTXkhygP70NGqf_U5_m" version="20.8.23" type="github">
  <diagram id="C5RBs43oDa-KdzZeNtuy" name="Page-1">
    <mxGraphModel dx="989" dy="482" grid="0" gridSize="10" guides="1" tooltips="1" connect="1" arrows="1" fold="1" page="1" pageScale="1" pageWidth="1169" pageHeight="827" background="none" math="0" shadow="0">
      <root>
        <mxCell id="WIyWlLk6GJQsqaUBKTNV-0" />
        <mxCell id="WIyWlLk6GJQsqaUBKTNV-1" parent="WIyWlLk6GJQsqaUBKTNV-0" />
        <mxCell id="mCSfgkidSdoZM6eWF9N3-0" value="" style="ellipse;whiteSpace=wrap;html=1;labelBackgroundColor=none;sketch=1;curveFitting=1;jiggle=2;" vertex="1" parent="WIyWlLk6GJQsqaUBKTNV-1">
          <mxGeometry x="61" y="127" width="47" height="29" as="geometry" />
        </mxCell>
        <mxCell id="mCSfgkidSdoZM6eWF9N3-1" value="ALUNO" style="rounded=0;whiteSpace=wrap;html=1;labelBackgroundColor=none;labelBorderColor=none;fontStyle=1;sketch=1;curveFitting=1;jiggle=2;" vertex="1" parent="WIyWlLk6GJQsqaUBKTNV-1">
          <mxGeometry x="146" y="114" width="120" height="60" as="geometry" />
        </mxCell>
        <mxCell id="mCSfgkidSdoZM6eWF9N3-2" value="CURSO" style="rounded=0;whiteSpace=wrap;html=1;labelBackgroundColor=none;fontStyle=1;sketch=1;curveFitting=1;jiggle=2;" vertex="1" parent="WIyWlLk6GJQsqaUBKTNV-1">
          <mxGeometry x="441" y="115" width="120" height="60" as="geometry" />
        </mxCell>
        <mxCell id="mCSfgkidSdoZM6eWF9N3-3" value="DISCIPLINA" style="rounded=0;whiteSpace=wrap;html=1;labelBackgroundColor=none;fontStyle=1;sketch=1;curveFitting=1;jiggle=2;" vertex="1" parent="WIyWlLk6GJQsqaUBKTNV-1">
          <mxGeometry x="441" y="345" width="120" height="60" as="geometry" />
        </mxCell>
        <mxCell id="mCSfgkidSdoZM6eWF9N3-4" value="DEPARTAMENTO" style="rounded=0;whiteSpace=wrap;html=1;labelBackgroundColor=none;fontStyle=1;sketch=1;curveFitting=1;jiggle=2;" vertex="1" parent="WIyWlLk6GJQsqaUBKTNV-1">
          <mxGeometry x="736" y="117" width="120" height="60" as="geometry" />
        </mxCell>
        <mxCell id="mCSfgkidSdoZM6eWF9N3-5" value="FACULDADE" style="rounded=0;whiteSpace=wrap;html=1;labelBackgroundColor=none;fontStyle=1;sketch=1;curveFitting=1;jiggle=2;" vertex="1" parent="WIyWlLk6GJQsqaUBKTNV-1">
          <mxGeometry x="734" y="347" width="120" height="60" as="geometry" />
        </mxCell>
        <mxCell id="mCSfgkidSdoZM6eWF9N3-7" value="" style="rhombus;whiteSpace=wrap;html=1;fontStyle=2;labelBackgroundColor=none;sketch=1;curveFitting=1;jiggle=2;" vertex="1" parent="WIyWlLk6GJQsqaUBKTNV-1">
          <mxGeometry x="314" y="104" width="80" height="80" as="geometry" />
        </mxCell>
        <mxCell id="mCSfgkidSdoZM6eWF9N3-8" value="" style="rhombus;whiteSpace=wrap;html=1;fontStyle=2;labelBackgroundColor=none;sketch=1;curveFitting=1;jiggle=2;" vertex="1" parent="WIyWlLk6GJQsqaUBKTNV-1">
          <mxGeometry x="323" y="335" width="80" height="80" as="geometry" />
        </mxCell>
        <mxCell id="mCSfgkidSdoZM6eWF9N3-9" value="PERTENCE" style="rhombus;whiteSpace=wrap;html=1;fontStyle=2;labelBackgroundColor=none;sketch=1;curveFitting=1;jiggle=2;" vertex="1" parent="WIyWlLk6GJQsqaUBKTNV-1">
          <mxGeometry x="609" y="104.5" width="80" height="80" as="geometry" />
        </mxCell>
        <mxCell id="mCSfgkidSdoZM6eWF9N3-10" value="PERTENCE" style="rhombus;whiteSpace=wrap;html=1;fontStyle=2;labelBackgroundColor=none;sketch=1;curveFitting=1;jiggle=2;" vertex="1" parent="WIyWlLk6GJQsqaUBKTNV-1">
          <mxGeometry x="754" y="229.5" width="80" height="80" as="geometry" />
        </mxCell>
        <mxCell id="mCSfgkidSdoZM6eWF9N3-13" value="" style="endArrow=none;html=1;rounded=0;fontColor=default;exitX=1;exitY=0.5;exitDx=0;exitDy=0;labelBackgroundColor=none;sketch=1;curveFitting=1;jiggle=2;" edge="1" parent="WIyWlLk6GJQsqaUBKTNV-1" source="mCSfgkidSdoZM6eWF9N3-1">
          <mxGeometry width="50" height="50" relative="1" as="geometry">
            <mxPoint x="254" y="151.5" as="sourcePoint" />
            <mxPoint x="314" y="144" as="targetPoint" />
          </mxGeometry>
        </mxCell>
        <mxCell id="mCSfgkidSdoZM6eWF9N3-14" value="" style="endArrow=none;html=1;rounded=0;fontColor=default;exitX=1;exitY=0.5;exitDx=0;exitDy=0;labelBackgroundColor=none;sketch=1;curveFitting=1;jiggle=2;" edge="1" parent="WIyWlLk6GJQsqaUBKTNV-1">
          <mxGeometry width="50" height="50" relative="1" as="geometry">
            <mxPoint x="394" y="144.66" as="sourcePoint" />
            <mxPoint x="442" y="144.66" as="targetPoint" />
          </mxGeometry>
        </mxCell>
        <mxCell id="mCSfgkidSdoZM6eWF9N3-15" value="" style="endArrow=none;html=1;rounded=0;fontColor=default;exitX=1;exitY=0.5;exitDx=0;exitDy=0;labelBackgroundColor=none;sketch=1;curveFitting=1;jiggle=2;" edge="1" parent="WIyWlLk6GJQsqaUBKTNV-1">
          <mxGeometry width="50" height="50" relative="1" as="geometry">
            <mxPoint x="561" y="144.66" as="sourcePoint" />
            <mxPoint x="609" y="144.66" as="targetPoint" />
          </mxGeometry>
        </mxCell>
        <mxCell id="mCSfgkidSdoZM6eWF9N3-16" value="" style="endArrow=none;html=1;rounded=0;fontColor=default;exitX=1;exitY=0.5;exitDx=0;exitDy=0;labelBackgroundColor=none;sketch=1;curveFitting=1;jiggle=2;" edge="1" parent="WIyWlLk6GJQsqaUBKTNV-1">
          <mxGeometry width="50" height="50" relative="1" as="geometry">
            <mxPoint x="688" y="144.16" as="sourcePoint" />
            <mxPoint x="736" y="144.16" as="targetPoint" />
          </mxGeometry>
        </mxCell>
        <mxCell id="mCSfgkidSdoZM6eWF9N3-18" value="" style="endArrow=none;html=1;rounded=0;fontColor=default;entryX=0;entryY=0.5;entryDx=0;entryDy=0;labelBackgroundColor=none;sketch=1;curveFitting=1;jiggle=2;" edge="1" parent="WIyWlLk6GJQsqaUBKTNV-1" target="mCSfgkidSdoZM6eWF9N3-8">
          <mxGeometry width="50" height="50" relative="1" as="geometry">
            <mxPoint x="266" y="174" as="sourcePoint" />
            <mxPoint x="316" y="124" as="targetPoint" />
          </mxGeometry>
        </mxCell>
        <mxCell id="mCSfgkidSdoZM6eWF9N3-20" value="" style="endArrow=none;html=1;rounded=0;fontColor=default;exitX=1;exitY=0.5;exitDx=0;exitDy=0;entryX=0;entryY=0.5;entryDx=0;entryDy=0;labelBackgroundColor=none;sketch=1;curveFitting=1;jiggle=2;" edge="1" parent="WIyWlLk6GJQsqaUBKTNV-1" source="mCSfgkidSdoZM6eWF9N3-8" target="mCSfgkidSdoZM6eWF9N3-3">
          <mxGeometry width="50" height="50" relative="1" as="geometry">
            <mxPoint x="389" y="431.5" as="sourcePoint" />
            <mxPoint x="439" y="381.5" as="targetPoint" />
          </mxGeometry>
        </mxCell>
        <mxCell id="mCSfgkidSdoZM6eWF9N3-21" value="MINISTRADA" style="rhombus;whiteSpace=wrap;html=1;fontSize=11;fontStyle=2;labelBackgroundColor=none;sketch=1;curveFitting=1;jiggle=2;" vertex="1" parent="WIyWlLk6GJQsqaUBKTNV-1">
          <mxGeometry x="461" y="219" width="80" height="80" as="geometry" />
        </mxCell>
        <mxCell id="mCSfgkidSdoZM6eWF9N3-22" value="" style="endArrow=none;html=1;rounded=0;fontSize=11;fontColor=default;entryX=0.5;entryY=1;entryDx=0;entryDy=0;labelBackgroundColor=none;sketch=1;curveFitting=1;jiggle=2;" edge="1" parent="WIyWlLk6GJQsqaUBKTNV-1" target="mCSfgkidSdoZM6eWF9N3-21">
          <mxGeometry width="50" height="50" relative="1" as="geometry">
            <mxPoint x="501" y="344" as="sourcePoint" />
            <mxPoint x="472" y="275" as="targetPoint" />
          </mxGeometry>
        </mxCell>
        <mxCell id="mCSfgkidSdoZM6eWF9N3-23" value="" style="endArrow=none;html=1;rounded=0;fontSize=11;fontColor=default;labelBackgroundColor=none;sketch=1;curveFitting=1;jiggle=2;" edge="1" parent="WIyWlLk6GJQsqaUBKTNV-1">
          <mxGeometry width="50" height="50" relative="1" as="geometry">
            <mxPoint x="500.66" y="219" as="sourcePoint" />
            <mxPoint x="500.66" y="174" as="targetPoint" />
          </mxGeometry>
        </mxCell>
        <mxCell id="mCSfgkidSdoZM6eWF9N3-24" value="" style="endArrow=none;html=1;rounded=0;fontSize=11;fontColor=default;entryX=0.5;entryY=1;entryDx=0;entryDy=0;labelBackgroundColor=none;sketch=1;curveFitting=1;jiggle=2;" edge="1" parent="WIyWlLk6GJQsqaUBKTNV-1" source="mCSfgkidSdoZM6eWF9N3-5">
          <mxGeometry width="50" height="50" relative="1" as="geometry">
            <mxPoint x="794" y="342" as="sourcePoint" />
            <mxPoint x="793.6600000000001" y="309.5" as="targetPoint" />
          </mxGeometry>
        </mxCell>
        <mxCell id="mCSfgkidSdoZM6eWF9N3-27" value="" style="endArrow=none;html=1;rounded=0;fontSize=11;fontColor=default;entryX=0.5;entryY=1;entryDx=0;entryDy=0;exitX=0.5;exitY=0;exitDx=0;exitDy=0;labelBackgroundColor=none;sketch=1;curveFitting=1;jiggle=2;" edge="1" parent="WIyWlLk6GJQsqaUBKTNV-1" source="mCSfgkidSdoZM6eWF9N3-10">
          <mxGeometry width="50" height="50" relative="1" as="geometry">
            <mxPoint x="794" y="214.5" as="sourcePoint" />
            <mxPoint x="793.6600000000001" y="177" as="targetPoint" />
          </mxGeometry>
        </mxCell>
      </root>
    </mxGraphModel>
  </diagram>
</mxfile>
